<svg width="384" height="154" viewBox="0 0 384 154" fill="none" xmlns="http://www.w3.org/2000/svg">
    <path d="M10.584 6.088L7.08 19H4.92L0.336 2.992H2.568L6.096 16.336L9.768 2.992H11.424L15.096 16.336L18.624 2.992H20.856L16.296 19H14.136L10.584 6.088ZM21.5946 13.192C21.5946 12.088 21.8426 11.072 22.3386 10.144C22.8346 9.216 23.5146 8.48 24.3786 7.936C25.2426 7.392 26.2186 7.12 27.3066 7.12C28.4426 7.12 29.4266 7.392 30.2586 7.936C31.1066 8.48 31.7546 9.224 32.2026 10.168C32.6506 11.112 32.8746 12.168 32.8746 13.336V13.792H23.5146C23.5946 14.928 24.0026 15.88 24.7386 16.648C25.4906 17.416 26.4666 17.8 27.6666 17.8C28.3386 17.8 28.9866 17.672 29.6106 17.416C30.2506 17.16 30.8026 16.8 31.2666 16.336L32.1306 17.512C30.9146 18.696 29.3786 19.288 27.5226 19.288C26.3866 19.288 25.3706 19.032 24.4746 18.52C23.5786 18.008 22.8746 17.288 22.3626 16.36C21.8506 15.432 21.5946 14.376 21.5946 13.192ZM27.2826 8.608C26.4986 8.608 25.8266 8.8 25.2666 9.184C24.7066 9.568 24.2746 10.056 23.9706 10.648C23.6826 11.24 23.5226 11.848 23.4906 12.472H31.0986C31.0826 11.848 30.9306 11.24 30.6426 10.648C30.3706 10.056 29.9466 9.568 29.3706 9.184C28.8106 8.8 28.1146 8.608 27.2826 8.608ZM36.03 2.992H37.83V19H36.03V2.992ZM40.9886 13.192C40.9886 12.056 41.2286 11.024 41.7086 10.096C42.2046 9.168 42.8846 8.44 43.7486 7.912C44.6286 7.384 45.6366 7.12 46.7726 7.12C47.7646 7.12 48.5966 7.296 49.2686 7.648C49.9406 8 50.5246 8.496 51.0206 9.136L49.8206 10.24C49.0846 9.232 48.1006 8.728 46.8686 8.728C45.6686 8.728 44.7006 9.144 43.9646 9.976C43.2446 10.808 42.8846 11.88 42.8846 13.192C42.8846 14.504 43.2446 15.584 43.9646 16.432C44.7006 17.264 45.6686 17.68 46.8686 17.68C48.0846 17.68 49.0686 17.176 49.8206 16.168L51.0206 17.272C50.5246 17.912 49.9406 18.408 49.2686 18.76C48.5966 19.112 47.7646 19.288 46.7726 19.288C45.6366 19.288 44.6286 19.024 43.7486 18.496C42.8846 17.968 42.2046 17.24 41.7086 16.312C41.2286 15.384 40.9886 14.344 40.9886 13.192ZM58.8474 19.288C57.7114 19.288 56.7034 19.016 55.8234 18.472C54.9594 17.928 54.2874 17.192 53.8074 16.264C53.3434 15.336 53.1114 14.312 53.1114 13.192C53.1114 12.072 53.3434 11.048 53.8074 10.12C54.2874 9.192 54.9594 8.464 55.8234 7.936C56.7034 7.392 57.7114 7.12 58.8474 7.12C59.9994 7.12 61.0074 7.392 61.8714 7.936C62.7514 8.464 63.4234 9.192 63.8874 10.12C64.3514 11.048 64.5834 12.072 64.5834 13.192C64.5834 14.312 64.3514 15.336 63.8874 16.264C63.4234 17.192 62.7514 17.928 61.8714 18.472C61.0074 19.016 59.9994 19.288 58.8474 19.288ZM58.8234 17.68C59.6234 17.68 60.3114 17.48 60.8874 17.08C61.4794 16.664 61.9274 16.12 62.2314 15.448C62.5354 14.76 62.6874 14.008 62.6874 13.192C62.6874 12.392 62.5354 11.656 62.2314 10.984C61.9274 10.296 61.4794 9.752 60.8874 9.352C60.3114 8.936 59.6234 8.728 58.8234 8.728C58.0394 8.728 57.3514 8.936 56.7594 9.352C56.1834 9.752 55.7434 10.296 55.4394 10.984C55.1354 11.656 54.9834 12.392 54.9834 13.192C54.9834 13.992 55.1354 14.736 55.4394 15.424C55.7434 16.112 56.1834 16.664 56.7594 17.08C57.3514 17.48 58.0394 17.68 58.8234 17.68ZM81.7258 11.128C81.7258 9.528 81.0138 8.728 79.5898 8.728C79.0298 8.728 78.4618 8.904 77.8858 9.256C77.3098 9.608 76.8618 10.024 76.5418 10.504V19H74.7418V11.128C74.7418 9.528 74.0298 8.728 72.6058 8.728C72.0298 8.728 71.4618 8.904 70.9018 9.256C70.3418 9.608 69.8938 10.032 69.5578 10.528V19H67.7578V7.408H69.5578V9.088C69.8458 8.64 70.3498 8.2 71.0698 7.768C71.7898 7.336 72.5338 7.12 73.3018 7.12C74.1498 7.12 74.8378 7.32 75.3658 7.72C75.8938 8.12 76.2378 8.64 76.3978 9.28C76.7658 8.704 77.3098 8.2 78.0298 7.768C78.7498 7.336 79.5018 7.12 80.2858 7.12C82.4458 7.12 83.5258 8.288 83.5258 10.624V19H81.7258V11.128ZM86.7086 13.192C86.7086 12.088 86.9566 11.072 87.4526 10.144C87.9486 9.216 88.6286 8.48 89.4926 7.936C90.3566 7.392 91.3326 7.12 92.4206 7.12C93.5566 7.12 94.5406 7.392 95.3726 7.936C96.2206 8.48 96.8686 9.224 97.3166 10.168C97.7646 11.112 97.9886 12.168 97.9886 13.336V13.792H88.6286C88.7086 14.928 89.1166 15.88 89.8526 16.648C90.6046 17.416 91.5806 17.8 92.7806 17.8C93.4526 17.8 94.1006 17.672 94.7246 17.416C95.3646 17.16 95.9166 16.8 96.3806 16.336L97.2446 17.512C96.0286 18.696 94.4926 19.288 92.6366 19.288C91.5006 19.288 90.4846 19.032 89.5886 18.52C88.6926 18.008 87.9886 17.288 87.4766 16.36C86.9646 15.432 86.7086 14.376 86.7086 13.192ZM92.3966 8.608C91.6126 8.608 90.9406 8.8 90.3806 9.184C89.8206 9.568 89.3886 10.056 89.0846 10.648C88.7966 11.24 88.6366 11.848 88.6046 12.472H96.2126C96.1966 11.848 96.0446 11.24 95.7566 10.648C95.4846 10.056 95.0606 9.568 94.4846 9.184C93.9246 8.8 93.2286 8.608 92.3966 8.608ZM110.5 19.288C109.652 19.288 109.012 19.056 108.58 18.592C108.148 18.128 107.932 17.456 107.932 16.576V8.992H106.012V7.408H107.932V4.24H109.732V7.408H112.084V8.992H109.732V16.192C109.732 16.64 109.828 17 110.02 17.272C110.228 17.544 110.516 17.68 110.884 17.68C111.14 17.68 111.38 17.64 111.604 17.56C111.828 17.464 111.996 17.344 112.108 17.2L112.66 18.544C112.132 19.04 111.412 19.288 110.5 19.288ZM119.93 19.288C118.794 19.288 117.786 19.016 116.906 18.472C116.042 17.928 115.37 17.192 114.89 16.264C114.426 15.336 114.194 14.312 114.194 13.192C114.194 12.072 114.426 11.048 114.89 10.12C115.37 9.192 116.042 8.464 116.906 7.936C117.786 7.392 118.794 7.12 119.93 7.12C121.082 7.12 122.09 7.392 122.954 7.936C123.834 8.464 124.506 9.192 124.97 10.12C125.434 11.048 125.666 12.072 125.666 13.192C125.666 14.312 125.434 15.336 124.97 16.264C124.506 17.192 123.834 17.928 122.954 18.472C122.09 19.016 121.082 19.288 119.93 19.288ZM119.906 17.68C120.706 17.68 121.394 17.48 121.97 17.08C122.562 16.664 123.01 16.12 123.314 15.448C123.618 14.76 123.77 14.008 123.77 13.192C123.77 12.392 123.618 11.656 123.314 10.984C123.01 10.296 122.562 9.752 121.97 9.352C121.394 8.936 120.706 8.728 119.906 8.728C119.122 8.728 118.434 8.936 117.842 9.352C117.266 9.752 116.826 10.296 116.522 10.984C116.218 11.656 116.066 12.392 116.066 13.192C116.066 13.992 116.218 14.736 116.522 15.424C116.826 16.112 117.266 16.664 117.842 17.08C118.434 17.48 119.122 17.68 119.906 17.68Z" fill="#0D0D0D"/>
    <rect y="92.6902" width="384" height="60.8627" fill="#001EFF"/>
    <path d="M49.844 140.589L60.0306 105.068H53.044L46.1106 132.388L38.7506 105.068H33.7906L26.4306 132.388L19.4973 105.068H12.564L22.6973 140.589H29.364L36.2973 114.335L43.1773 140.589H49.844Z" fill="white"/>
    <path d="M80.8194 141.228C91.4327 141.228 99.0061 133.453 99.0061 122.855C99.0061 112.258 91.4327 104.482 80.8194 104.482C70.1527 104.482 62.6327 112.258 62.6327 122.855C62.6327 133.453 70.1527 141.228 80.8194 141.228ZM80.8194 135.69C73.6194 135.69 69.0327 130.151 69.0327 122.855C69.0327 115.506 73.6194 110.021 80.8194 110.021C87.966 110.021 92.606 115.506 92.606 122.855C92.606 130.151 87.966 135.69 80.8194 135.69Z" fill="white"/>
    <path d="M133.601 140.589L124.854 126.636C129.174 125.944 133.334 122.483 133.334 116.198C133.334 109.595 128.694 105.068 121.654 105.068H106.027V140.589H112.267V127.329H118.507L126.347 140.589H133.601ZM120.854 121.843H112.267V110.553H120.854C124.374 110.553 126.934 112.737 126.934 116.145C126.934 119.607 124.374 121.843 120.854 121.843Z" fill="white"/>
    <path d="M169.649 140.589L154.076 121.79L168.529 105.068H160.796L146.876 121.95V105.068H140.636V140.589H146.876V129.246L150.022 125.571L161.916 140.589H169.649Z" fill="white"/>
    <path d="M187.041 141.228C196.587 141.228 200.801 136.116 200.801 130.204C200.801 116.997 180.107 121.098 180.107 114.441C180.107 111.832 182.454 110.021 186.081 110.021C189.814 110.021 193.601 111.299 196.427 114.122L199.947 109.488C196.694 106.293 192.161 104.482 186.667 104.482C178.827 104.482 173.707 109.009 173.707 114.92C173.707 127.968 194.401 123.335 194.401 130.79C194.401 133.187 192.427 135.69 187.307 135.69C182.347 135.69 178.454 133.347 176.054 130.737L172.534 135.583C175.734 138.885 180.481 141.228 187.041 141.228Z" fill="white"/>
    <path d="M213.801 140.589V127.275H223.241C230.654 127.275 234.814 122.216 234.814 116.198C234.814 110.127 230.707 105.068 223.241 105.068H207.561V140.589H213.801ZM222.387 121.79H213.801V110.553H222.387C225.907 110.553 228.414 112.79 228.414 116.198C228.414 119.554 225.907 121.79 222.387 121.79Z" fill="white"/>
    <path d="M269.17 140.589L255.197 105.068H247.41L233.437 140.589H240.53L243.144 133.719H259.464L262.077 140.589H269.17ZM257.704 128.234H244.904L251.304 111.299L257.704 128.234Z" fill="white"/>
    <path d="M289.314 141.228C296.461 141.228 300.887 137.447 303.607 133.187L298.274 130.524C296.567 133.453 293.101 135.69 289.314 135.69C282.274 135.69 277.047 130.258 277.047 122.855C277.047 115.346 282.274 110.021 289.314 110.021C293.101 110.021 296.567 112.204 298.274 115.187L303.554 112.417C300.941 108.157 296.461 104.482 289.314 104.482C278.807 104.482 270.647 111.885 270.647 122.855C270.647 133.773 278.807 141.228 289.314 141.228Z" fill="white"/>
    <path d="M333.988 140.589V135.104H315.855V125.199H333.615V119.713H315.855V110.553H333.988V105.068H309.615V140.589H333.988Z" fill="white"/>
    <path d="M19.9771 80.1849H27.2523L19.1783 63.9247L19.4556 63.8459C23.6807 62.6507 26.0706 59.2949 26.0178 54.6322C25.9584 47.8746 21.7464 44 14.4646 44H0V80.1849H6.56881V65.2578H13.032L19.9771 80.1849ZM6.56881 60.0435V49.2143H13.2367C17.2968 49.2143 19.449 51.0859 19.449 54.6322C19.449 58.4805 17.2968 60.0501 12.0153 60.0501H6.56881V60.0435Z" fill="black"/>
    <path d="M54.0359 64.0429V58.625H41.4331V49.4179H58.7827V44H34.8643V80.1849H59.3438V74.767H41.4331V64.0429H54.0359Z" fill="black"/>
    <path d="M87.1639 58.625H74.8647V49.4179H91.2966V44H68.2959V80.1849H74.8647V64.0429H87.1639V58.625Z" fill="black"/>
    <path d="M99.1726 44V80.1849H105.741V78.0243V44H99.1726Z" fill="black"/>
    <path d="M156.087 44V80.1849H162.656V77.4793V44H156.087Z" fill="black"/>
    <path d="M196.543 44H170.684V49.4179H180.329V80.1849H186.898V49.4179H196.543V44Z" fill="black"/>
    <path d="M204.524 44V80.1849H211.093V77.1246V44H204.524Z" fill="black"/>
    <path d="M138.836 44V69.6447H138.737L123.863 44H116.885V80.1849H123.045V53.4238H123.144L138.579 80.1849H144.996V44H138.836Z" fill="black"/>
    <path d="M242.201 44L233.685 73.3288H233.625L225.103 44H218.666L229.902 80.1849H237.408L248.645 44H242.201Z" fill="black"/>
    <path d="M259.048 53.1294C258.214 53.1294 257.445 52.9284 256.74 52.5265C256.05 52.1102 255.497 51.5576 255.08 50.8686C254.677 50.1652 254.476 49.3973 254.476 48.5647C254.476 47.7322 254.677 46.9714 255.08 46.2824C255.497 45.579 256.05 45.0263 256.74 44.6244C257.445 44.2081 258.214 44 259.048 44C259.881 44 260.643 44.2081 261.333 44.6244C262.038 45.0263 262.591 45.579 262.994 46.2824C263.41 46.9714 263.619 47.7322 263.619 48.5647C263.619 49.3973 263.41 50.1652 262.994 50.8686C262.591 51.5576 262.038 52.1102 261.333 52.5265C260.643 52.9284 259.881 53.1294 259.048 53.1294ZM259.048 44.6244C258.329 44.6244 257.66 44.8038 257.042 45.1627C256.438 45.5072 255.957 45.9809 255.597 46.5838C255.252 47.1867 255.08 47.847 255.08 48.5647C255.08 49.2824 255.252 49.9427 255.597 50.5456C255.957 51.1485 256.438 51.6294 257.042 51.9882C257.66 52.3471 258.329 52.5265 259.048 52.5265C259.766 52.5265 260.428 52.3471 261.031 51.9882C261.635 51.6294 262.11 51.1485 262.455 50.5456C262.814 49.9427 262.994 49.2824 262.994 48.5647C262.994 47.847 262.814 47.1867 262.455 46.5838C262.11 45.9809 261.635 45.5072 261.031 45.1627C260.428 44.8038 259.766 44.6244 259.048 44.6244ZM258.94 49.1245H257.969V51.1916H257.301V45.9594H259.436C259.896 45.9594 260.284 46.1101 260.6 46.4115C260.916 46.6986 261.074 47.079 261.074 47.5527C261.074 47.9116 260.988 48.2058 260.816 48.4355C260.658 48.6652 260.471 48.8374 260.255 48.9523C260.039 49.0528 259.867 49.103 259.738 49.103L261.139 51.1916H260.298L258.94 49.1245ZM257.991 46.5623V48.5001H259.457C259.716 48.5001 259.939 48.414 260.126 48.2417C260.313 48.0551 260.406 47.8255 260.406 47.5527C260.406 47.2656 260.313 47.0288 260.126 46.8422C259.939 46.6556 259.716 46.5623 259.457 46.5623H257.991Z" fill="black"/>
</svg>
