<svg width="128" height="42" viewBox="0 0 128 42" fill="none" xmlns="http://www.w3.org/2000/svg">
    <path d="M115.383 29.5121H125.746V26.3876H107.716L123.492 41.9997H128L115.383 29.5121Z" fill="#001EFF"/>
    <path d="M125.746 13.8725H97.3269V42H100.484V16.9969H125.746V13.8725Z" fill="#001EFF"/>
    <path d="M7.69759 13.8736H10.5009L7.38979 7.63986L7.49663 7.60964C9.12468 7.15143 10.0455 5.86489 10.0252 4.07734C10.0023 1.48665 8.38188 0.0012207 5.57351 0.0012207H0V13.8736H2.5311V8.15094H5.0215L7.69759 13.8736ZM2.5311 6.15191V2.00026H5.10036C6.6648 2.00026 7.49409 2.7178 7.49409 4.07734C7.49409 5.5527 6.6648 6.15443 4.62975 6.15443H2.5311V6.15191Z" fill="black"/>
    <path d="M20.8236 7.68143V5.60435H15.9649V2.07708H22.6526V0H13.4338V13.8724H22.8689V11.7953H15.9649V7.68143H20.8236Z" fill="black"/>
    <path d="M33.5862 5.60435H28.847V2.07708H35.1811V0H26.3159V13.8724H28.847V7.68143H33.5862V5.60435Z" fill="black"/>
    <path d="M38.2158 0V13.8724H40.7469V13.0441V0H38.2158Z" fill="black"/>
    <path d="M60.1433 0V13.8724H62.6744V12.8326V0H60.1433Z" fill="black"/>
    <path d="M75.7348 0H65.7681V2.07457H69.4846V13.8724H72.0157V2.07457H75.7348V0Z" fill="black"/>
    <path d="M78.8076 0V13.8724H81.3387V12.6967V0H78.8076Z" fill="black"/>
    <path d="M53.4965 0V9.82901H53.4584L47.7271 0H45.0383V13.8724H47.4143V3.61287H47.4499L53.3999 13.8724H55.8699V0H53.4965Z" fill="black"/>
    <path d="M93.3274 0L90.0433 11.2439H90.0204L86.7389 0H84.2561L88.5857 13.8724H91.478L95.8076 0H93.3274Z" fill="black"/>
</svg>
